<?xml version="1.0" encoding="utf-8"?>
<!-- Generator: Adobe Illustrator 27.3.1, SVG Export Plug-In . SVG Version: 6.00 Build 0)  -->
<svg version="1.1" id="Layer_1" xmlns="http://www.w3.org/2000/svg" xmlns:xlink="http://www.w3.org/1999/xlink" x="0px" y="0px"
	 viewBox="0 0 253 77" style="enable-background:new 0 0 253 77;" xml:space="preserve">
<style type="text/css">
	.st0{fill:#EE0000;}
</style>
<g>
	<rect x="62.06" y="60.96" class="st0" width="189.42" height="0.42"/>
	<polygon points="159.49,48.6 157.86,55.02 157.83,55.02 156.31,48.6 153.23,48.6 150.71,58.47 153,58.47 154.6,52.16 154.62,52.16 
		156.23,58.47 159.26,58.47 161.77,48.6 	"/>
	<path d="M145.54,53.55l1.74-2.83h0.03l0.17,2.83H145.54z M146.33,48.6c-2.14,3.31-4.25,6.65-6.48,9.87h2.85l1.71-2.85h3.04
		l0.17,2.85h2.75c-0.33-3.28-0.72-6.64-0.92-9.87H146.33z"/>
	<path d="M165,51.25c0.14-0.52,0.89-0.7,1.29-0.71c0.76-0.02,1.22,0.19,1.71,0.5c0,0,0.49-1.95,0.51-2.05
		c-0.81-0.45-1.69-0.57-2.34-0.57c-2.31,0-3.51,1.39-3.74,2.56c-0.44,2.3,2.29,3.57,2,4.63c-0.21,0.79-0.97,0.83-1.4,0.83
		c-0.73,0-1.42-0.24-2.03-0.58l-0.55,2.3c0.73,0.25,1.79,0.48,2.64,0.48c2.69,0,3.55-1.22,3.84-2.56
		C167.42,53.78,164.67,52.52,165,51.25"/>
	<path d="M138.65,51.25c0.13-0.52,0.89-0.7,1.28-0.71c0.78-0.02,1.22,0.19,1.72,0.5c0,0,0.64-1.88,0.64-1.97
		c-0.86-0.55-1.83-0.65-2.48-0.65c-2.31,0-3.52,1.39-3.74,2.56c-0.43,2.3,2.3,3.57,2,4.63c-0.22,0.79-0.97,0.83-1.4,0.83
		c-0.73,0-1.42-0.24-2.03-0.58l-0.55,2.3c0.72,0.25,1.79,0.48,2.63,0.48c2.7,0,3.56-1.22,3.84-2.56
		C141.07,53.78,138.32,52.56,138.65,51.25"/>
	<polygon points="205.9,55 205.88,55 204.35,48.58 201.28,48.58 198.76,58.45 201.04,58.45 202.65,52.14 202.67,52.14 204.27,58.45 
		207.3,58.45 209.82,48.58 207.54,48.58 	"/>
	<polygon points="176.94,50.7 180.7,50.7 181.24,48.58 174.89,48.58 172.37,58.45 174.97,58.45 175.97,54.54 179.11,54.54 
		179.64,52.43 176.51,52.43 	"/>
	<polygon points="218.06,48.58 210.73,48.58 210.2,50.69 212.57,50.69 210.59,58.44 213.19,58.44 215.16,50.69 217.52,50.69 	"/>
	<polygon points="218.98,48.58 216.46,58.45 219.06,58.45 221.58,48.58 	"/>
	<polygon points="227.45,54.54 227.99,52.42 224.74,52.42 225.18,50.69 229.28,50.69 229.83,48.58 223.12,48.58 220.61,58.45 
		227.31,58.45 227.85,56.33 223.74,56.33 224.2,54.54 	"/>
	<polygon points="244.08,54.54 244.62,52.42 241.3,52.42 241.74,50.69 245.85,50.69 246.39,48.58 239.69,48.58 237.17,58.45 
		243.87,58.45 244.41,56.33 240.31,56.33 240.76,54.54 	"/>
	<path d="M196.45,53.52c-0.42,1.58-1.62,2.96-3.1,2.96c-1.57,0-1.98-1.42-1.59-2.94c0.39-1.53,1.53-2.96,3.09-2.96
		C196.36,50.58,196.81,51.94,196.45,53.52 M195.39,48.42c-2.93,0-5.4,1.84-6.23,5.1c-0.83,3.29,0.7,5.12,3.64,5.12
		c2.75,0,5.27-1.63,6.18-4.83C199.94,50.34,198.33,48.42,195.39,48.42"/>
	<path d="M249.49,51.23c0.15-0.52,0.89-0.71,1.29-0.71c0.76-0.02,1.22,0.19,1.71,0.5c0,0,0.5-1.95,0.51-2.05
		c-0.8-0.46-1.69-0.57-2.34-0.57c-2.31,0-3.52,1.38-3.73,2.55c-0.44,2.3,2.29,3.58,2,4.63c-0.22,0.79-0.97,0.83-1.4,0.83
		c-0.73,0-1.42-0.24-2.03-0.58l-0.55,2.3c0.73,0.26,1.79,0.49,2.63,0.49c2.7,0,3.56-1.22,3.84-2.56
		C251.91,53.76,249.13,52.49,249.49,51.23"/>
	<path d="M186.39,54.11c1.32-0.24,2.34-1.41,2.62-2.52c0.5-1.95-0.07-3-2.25-3h-4.4l-2.51,9.87h2.47l1.98-7.79h1.28
		c0.37,0,1.17,0,0.91,1.05c-0.2,0.78-0.8,1.29-1.94,1.28h-0.07l-0.85,0l0.91,5.47h2.79C187.33,58.45,186.42,54.32,186.39,54.11"/>
	<path d="M235.19,54.11c1.31-0.24,2.33-1.41,2.62-2.53c0.5-1.95-0.08-3-2.26-3h-4.41l-2.51,9.87h2.48l1.98-7.8h1.28
		c0.37,0,1.18,0,0.91,1.05c-0.2,0.78-0.8,1.3-1.94,1.28h-0.07h-0.85l0.9,5.47h2.79C236.12,58.45,235.21,54.32,235.19,54.11"/>
	<polygon points="98.9,58.45 99.44,56.34 95.33,56.34 95.79,54.55 99.14,54.55 99.68,52.44 96.33,52.44 96.77,50.71 100.88,50.71 
		101.42,48.59 94.71,48.59 92.2,58.45 	"/>
	<polygon points="81.52,58.45 82.06,56.34 77.95,56.34 78.41,54.55 81.72,54.55 82.26,52.44 78.94,52.44 79.39,50.71 83.49,50.71 
		84.04,48.59 77.33,48.59 74.81,58.45 	"/>
	<path d="M104.52,58.61c0.47,0,1.77-0.15,2.5-0.28l0.63-2.28c-0.77,0.21-1.55,0.4-2.58,0.4c-1.59,0-1.99-1.42-1.6-2.94
		c0.34-1.31,1.53-2.96,3.56-2.96c0.68,0,1.28,0.18,1.87,0.39l0.57-2.21c-0.61-0.23-1.59-0.34-2.32-0.34c-2.97,0-5.46,1.83-6.3,5.1
		C100,56.78,101.55,58.61,104.52,58.61"/>
	<polygon points="110.91,58.45 113.43,48.59 110.83,48.59 108.31,58.45 	"/>
	<polygon points="67.21,51.4 67.24,51.4 67.1,58.45 69.32,58.46 72.82,51.39 72.85,51.39 71.05,58.45 73.25,58.45 75.76,48.59 
		72.31,48.59 69.25,54.79 69.22,54.79 69.39,48.59 65.73,48.59 63.22,58.45 65.41,58.45 	"/>
	<polygon points="114.74,58.45 116.34,52.16 116.37,52.16 117.97,58.45 121,58.45 123.51,48.59 121.24,48.59 119.6,55.01 
		119.58,55.01 118.05,48.59 114.99,48.59 112.46,58.45 	"/>
	<path d="M89.87,53.51c-0.37,1.45-1.4,2.82-2.84,2.82h-1.12l1.44-5.64h1.29C90.03,50.7,90.34,51.68,89.87,53.51 M92.48,53.51
		c1.06-4.17-1.2-4.93-2.41-4.93H85.4l-2.51,9.87h4.13C89.85,58.45,91.74,56.38,92.48,53.51"/>
	<path d="M126.75,51.25c0.13-0.52,0.88-0.7,1.29-0.71c0.76-0.02,1.22,0.19,1.71,0.5c0,0,0.49-1.95,0.51-2.05
		c-0.81-0.46-1.69-0.57-2.34-0.57c-2.32,0-3.52,1.39-3.75,2.56c-0.43,2.3,2.3,3.57,2,4.63c-0.22,0.79-0.97,0.83-1.4,0.83
		c-0.72,0-1.42-0.24-2.02-0.58l-0.55,2.3c0.73,0.25,1.79,0.48,2.64,0.48c2.7,0,3.55-1.22,3.84-2.56
		C129.17,53.78,126.42,52.55,126.75,51.25"/>
	<path class="st0" d="M26.58,63.91c0.72-0.42,2.34-1.29,2.53-1.41c0.31-0.18,0.5-0.16,0.5-0.06c0.04,0.37,0.03,1.14,0.5,1.3
		c0.14,0.04,0.48-0.12,0.55-0.03c0.18,0.25,0.18,0.21,0.22,0.28c0.06,0.09,0.29,0.04,0.34,0.09c0.13,0.12,0,0.27,0.08,0.35
		c0.11,0.13,0.34-0.08,0.46-0.06c0.21,0.04,0.26,0.28,0.23,0.43c-0.05,0.25,0.1,0.44,0.5,0.11c0.22-0.18,0.23-0.09,0.42-0.18
		c0.11-0.05,0.29-0.05,0.37,0.03c0.08,0.08,0.2,0.21,0.31,0.25c0.17,0.07,0.35,0,0.46,0.04c0.16,0.07,0.16,0.3,0.3,0.32
		c0.13,0.02,0.27-0.24,0.36-0.16c0.24,0.23-0.2,0.62,0.11,0.71c0.17,0.05,0.24-0.09,0.37-0.11c0.14-0.02,0.21-0.18,0.33-0.18
		c0.12,0,0.2,0.13,0.35,0.05c0.12-0.06,0.22-0.11,0.32-0.18c0.17-0.1,0.34-0.05,0.43-0.13c0.12-0.09,0.03-0.35,0.37-0.29
		c0.35,0.06-0.05,0.39,0.09,0.52c0.12,0.1,0.41,0,0.51-0.03c0.18-0.06,0.36-0.29,0.43-0.45c0.07-0.2,0.36-0.83,0.48-1.01
		c0.12-0.18,0.41-0.85,0.56-1.08c0.16-0.23,0.77-1.22,0.83-1.37c0.06-0.16,0.28-0.37,0.34-0.48c0.06-0.12,0.18-0.51,0.34-0.82
		c0.15-0.31,0.58-0.93,0.62-1.04c0.04-0.11,0.37-0.87,0.48-1.1c0.11-0.23,0.52-0.76,0.61-1.01c0.1-0.25,0.37-0.78,0.37-0.78
		l0.29-0.48c0,0,0.09-0.21,0.23-0.5c0.14-0.29,0.54-0.91,0.66-1.12c0.11-0.21,0.44-0.66,0.44-0.66l0.25-0.56l0.19-0.43
		c0,0,0.16-0.5,0.24-0.63c0.08-0.14,0.34-0.47,0.43-0.64c0.07-0.17,0.31-0.95,0.42-1.18c0.11-0.23,0.67-1.24,0.73-1.43
		c0.06-0.19,0.64-1.24,0.69-1.45c0.06-0.22,0.08-0.51,0.16-0.64c0.08-0.14,0.31-0.48,0.35-0.58c0.03-0.1,0.42-1.02,0.48-1.16
		c0.06-0.13,0.09-0.39,0.25-0.39c0.15,0,0.26,0.17,0.37,0.31c0.12,0.17,0.35,0.14,0.48,0.27c0.13,0.14,0.58,0.62,0.6,0.69
		c0.02,0.08,0.27,0.1,0.33,0.17c0.06,0.08,0.1,0.27,0.17,0.31c0.07,0.04,0.46,0.31,0.54,0.43c0.08,0.12,0.17,0.35,0.27,0.43
		c0.1,0.08,0.54,0.35,0.6,0.46c0.05,0.12,0.69,0.89,0.77,1.03c0.07,0.13,0.13,0.36,0.19,0.46c0.06,0.1,0.29,0.23,0.31,0.33
		c0.02,0.09,0.04,0.44,0.1,0.54c0.05,0.1,0.32,0.21,0.36,0.31c0.04,0.09,0.16,0.46,0.21,0.52c0.05,0.05,0.17,0.14,0.21,0.21
		c0.04,0.08,0.08,0.5,0.13,0.58c0.06,0.08,0.26,0.41,0.31,0.55c0.06,0.14,0.26,0.38,0.29,0.48c0.04,0.1,0.06,0.49,0.09,0.62
		c0.04,0.14,0.22,0.43,0.24,0.5c0.01,0.08,0.06,0.31,0.06,0.31l0.15,0.37c0,0,0.17,0.37,0.17,0.5c0,0.13,0.04,0.29,0.06,0.39
		c0.02,0.1,0.17,0.34,0.17,0.42c0,0.08,0.21,0.52,0.21,0.52s-0.04,0.38,0,0.48c0.04,0.09,0.21,0.37,0.21,0.47
		c0,0.1-0.06,0.35-0.06,0.35l0.09,0.16c0,0-0.05,0.21-0.01,0.29c0.03,0.08-0.05,0.25,0.01,0.31c0.06,0.06,0.22,0.46,0.22,0.46
		c-0.12,0.14-8.17,3.87-11.62,5.48c-4.97,2.32-15.31,7.52-16.41,8.16c-1.1,0.63-1.79,1-2.05,0.87c-0.62-0.32-1.61-1.2-2.29-3.1
		c-0.58-1.6-0.58-2.93-0.53-3.6c0.04-0.51-0.01-0.89,0.77-1.34C24.44,65.14,25.86,64.34,26.58,63.91"/>
	<path class="st0" d="M12.26,35.36c0.04,0.09,0.21,0.07,0.33,0.09c0.07,0.02,0.2,0.14,0.27,0.15c0.09,0.01,0.2-0.04,0.24,0
		c0.12,0.09,0.1,0.22,0.18,0.34c0.08,0.12,0.12,0.31,0.24,0.35c0.11,0.04,0.26,0.02,0.31,0.13c0.04,0.12-0.05,0.3,0.04,0.44
		c0.21,0.38,0.02,1.45,0.22,1.53c0.19,0.08,0.77-0.11,0.97-0.29c0.2-0.18,0.5-0.51,0.65-0.58c0.3-0.13,0.87-0.45,1.16-0.51
		c0.28-0.06,0.42-0.51,0.69-0.54c0.27-0.02,0.17-0.24,0.37-0.32c0.19-0.08,0.55-0.28,0.67-0.16c0.06,0.05,0.16,0.2,0.34,0.27
		c0.2,0.08,0.43-0.03,0.47,0.21c0.06,0.35,0.58,0.04,0.58,0.04s0.64-0.41,0.91-0.53c0.27-0.12,0.99-0.5,0.99-0.5s0.56-0.29,0.8-0.4
		c8.69-4.18,15.56-6.49,21.85-8.94c9.8-3.8,26.76-8.16,29.99-8.97c0.34-0.08,1.09-0.2,1.18-0.26c0.09-0.05,0.25-0.09,0.33-0.4
		c0.08-0.31-0.16-0.73-0.16-0.89s0.35-0.78,0.39-1.04c0.03-0.27-0.23-0.31-0.23-0.31s0.04-0.34-0.04-0.58
		c-0.07-0.24-0.51-0.46-0.58-0.66c-0.07-0.19,0-0.77-0.07-0.97c-0.08-0.19-0.31-0.35-0.31-0.35s0.06-0.1,0-0.27
		c-0.05-0.17-0.23-0.16-0.23-0.16s0.07-0.37,0.04-0.51c-0.03-0.13-0.23-0.23-0.23-0.23s-0.23-0.15-0.23-0.3
		c0-0.16-0.04-0.28-0.16-0.35c-0.12-0.08-0.46-0.08-0.58-0.12c-0.12-0.04-0.38-0.12-0.58-0.08c-0.19,0.04-0.27,0.19-0.81,0.3
		c-0.54,0.12-0.77,0-1,0.04c-0.23,0.04-0.5,0.2-0.77,0.27c-2.62,0.68-14.67,4.19-23.54,7.54c-8.25,3.1-18.09,7.59-24.09,10.71
		c-4.53,2.37-6.96,3.73-7.97,4.36c-0.52,0.32-1.09,0.7-1.18,0.85c-0.14,0.24-0.29,0.6-0.59,0.64c-0.36,0.06-0.31,0.25-0.43,0.28
		c-0.14,0.03-0.3,0.18-0.41,0.29C12.18,35.12,12.22,35.27,12.26,35.36"/>
	<path class="st0" d="M49.76,29.96c-0.4-0.24-0.27-0.47,0.2-0.67c2.87-1.23,10.12-3.82,14.29-5.15c3.55-1.12,13.35-4.33,16.08-5.11
		c0.66-0.19,0.93-0.18,1.22,0.12c0.74,0.79,1.46,1.85,2.14,3.17c0.62,1.21,1.17,2.97,1.37,4.07c0.16,0.81-0.22,0.95-0.65,1.15
		c-3.03,1.36-10.52,4.64-13.63,6.12c-3.05,1.44-8.61,4.12-10.49,5.07c-0.8,0.4-0.67,0.56-1.21-0.05c-0.17-0.18-0.43-0.62-0.5-0.74
		c-0.08-0.12-1.12-1.05-1.24-1.16c-0.11-0.12-0.7-0.81-0.85-0.93c-0.15-0.12-0.65-0.82-0.81-0.89c-0.16-0.08-0.42-0.2-0.53-0.32
		c-0.12-0.12-0.32-0.36-0.44-0.43c-0.11-0.08-0.38-0.35-0.38-0.35l-0.36-0.32l-0.31-0.35c0,0-0.27-0.35-0.46-0.42
		c-0.19-0.08-0.46-0.39-0.54-0.51c-0.07-0.11-0.69-0.89-1-1.08c-0.31-0.19-1.05-0.68-1.21-0.79C50.29,30.28,50.09,30.16,49.76,29.96
		"/>
	<path class="st0" d="M60.8,40.55c-0.3-0.3,0.09-0.34,0.43-0.47c1.27-0.49,8.83-2.86,15.4-4.6c6.56-1.72,16.04-3.69,17.45-3.98
		c0.6-0.12,0.82-0.03,1.12,0.46c0.35,0.57,1.08,2.44,1.35,3.94c0.36,1.92,0.02,3.87-0.15,4.33c-0.14,0.39-0.68,0.41-1.95,0.76
		c-0.77,0.21-4.04,1.05-5.38,1.44c-1.54,0.45-5.63,1.63-7.14,2.15c-1.87,0.64-4.32,1.45-4.32,1.45l-13.01,0.22
		c0,0-0.2-0.88-0.3-0.96c-0.12-0.08-0.31-0.5-0.43-0.62c-0.12-0.12-0.27-0.54-0.27-0.54s-0.12-0.46-0.23-0.54
		c-0.12-0.08-0.39-0.75-0.51-0.82c-0.12-0.08-0.38-0.41-0.49-0.57c-0.12-0.16-0.19-0.35-0.38-0.5c-0.19-0.15-0.44-0.46-0.58-0.54
		C61.22,41.08,61.1,40.85,60.8,40.55"/>
	<path class="st0" d="M45.06,15.42c-0.37,0.01-0.7,0.01-0.79-0.1c-0.04-0.06,0.01-0.17-0.09-0.25c-0.09-0.08-0.27-0.06-0.33-0.01
		c-0.06,0.04-0.04,0.04-0.17,0.08c-0.13,0.04-0.62-0.13-0.8-0.07c-0.17,0.06-0.54,0.07-0.66,0.01c-0.12-0.06-0.14-0.4-0.36-0.49
		c-0.12-0.05-0.47-0.25-0.59-0.45c-0.12-0.2-0.43-0.51-0.49-0.65c-0.07-0.14-0.16-0.37-0.21-0.49c-0.04-0.12-0.16-0.36-0.23-0.45
		c-0.07-0.09-0.17-0.16-0.25-0.24c-0.08-0.09-0.15-0.36-0.22-0.48c-0.04-0.06-0.13-0.18-0.17-0.28c-0.05-0.09-0.05-0.19-0.08-0.3
		c-0.04-0.11-0.18-0.26-0.2-0.36c-0.03-0.1-0.08-0.79-0.06-1.31c0.01-0.52,0-0.98,0.06-1.2c0.05-0.21,0.16-0.41,0.2-0.62
		c0.04-0.22,0.32-0.93,0.39-1.26c0.07-0.33,0.24-0.96,0.33-1.17c0.08-0.22,0.31-0.8,0.43-0.99c0.12-0.19,0.55-0.84,0.73-1.06
		c0.17-0.22,0.97-1.01,1.16-1.16c0.19-0.14,0.62-0.47,0.77-0.57c0.08-0.06,0.64-0.45,0.83-0.56C44.38,0.9,44.6,0.9,44.6,0.9
		l0.19-0.19c0,0,0.11-0.12,0.2-0.19c0.1-0.07,0.35-0.07,0.35-0.07s0.28-0.22,0.58-0.16c0.13,0.02,0.21-0.21,0.33-0.23
		c0.12-0.03,0.54-0.09,0.6-0.03c0.06,0.06,0.13,0.13,0.37,0.18c0.23,0.04,0.43-0.01,0.52,0.02c0.13,0.03,0.25,0.18,0.33,0.21
		c0.09,0.03,1.15,1,1.29,1.25c0.05,0.08,0.07,0.24,0.09,0.29c0.04,0.08,0.22,0.2,0.29,0.46c0.05,0.21,0.26,0.28,0.29,0.58
		c0.01,0.18,0.35,0.33,0.45,0.71c0.03,0.09,0.07,0.46,0.1,0.51c0.03,0.06,0.1,0.08,0.14,0.21c0.04,0.13,0.08,0.32,0.06,0.48
		c-0.02,0.16,0.28,0.75,0.25,1.12c-0.03,0.36-0.1,0.75-0.19,1.03c-0.09,0.28-0.03,0.8-0.09,1.02c-0.05,0.21-0.21,0.74-0.25,0.9
		c-0.03,0.16-0.48,1.26-0.55,1.37c-0.08,0.12-0.33,0.61-0.44,0.76c-0.11,0.14-1.01,1.39-1.17,1.55c-0.16,0.16-0.55,0.46-0.63,0.58
		c-0.11,0.16-0.19,0.36-0.31,0.54c-0.17,0.29-0.42,0.07-0.54,0.27c-0.16,0.28-0.46,0.35-0.52,0.51c-0.09,0.25-0.28,0.46-0.38,0.54
		C45.74,15.28,45.29,15.42,45.06,15.42"/>
	<path class="st0" d="M19.07,53.62c0,0-3.81,1.29-5.33,1.83c-1.45,0.52-3.02,1.07-4.08,1.51c-1.28,0.53-3.56,1.46-4.12,1.65
		c-0.84,0.3-1.2,0.12-1.43-0.39c-0.23-0.5-0.79-1.56-1.09-2.79c-0.31-1.24-0.42-2.27-0.44-2.65c-0.02-0.38,0.3-1.06,0.76-1.31
		c0.46-0.25,1.57-0.94,2.46-1.44c1.69-0.98,7.54-4.1,11.03-5.91c3.68-1.91,9.5-4.73,12.63-6.28c3.13-1.54,8.26-3.98,8.88-4.25
		c0.62-0.27,1.27-0.58,1.58-0.58c0.31,0,0.2,0.15,0.2,0.27c0,0.11-0.11,0.16-0.15,0.4c-0.04,0.23-0.01,0.5-0.09,0.73
		c-0.08,0.23-0.28,0.45-0.32,0.61c-0.04,0.15-0.07,0.71-0.22,0.9c-0.15,0.2-0.71,1.27-0.82,1.77c-0.11,0.5-0.37,1.33-0.49,1.52
		c-0.12,0.19-0.49,0.92-0.52,1.15c-0.04,0.23-0.29,0.78-0.36,1.01c-0.09,0.23-0.55,1.1-0.62,1.25c-0.08,0.15-0.38,1.19-0.46,1.34
		c-0.08,0.16-0.38,0.62-0.38,0.62l-0.16,0.66c0,0-0.43,0.62-0.43,0.73c0,0.12-0.31,1.16-0.46,1.39c-0.16,0.23-0.89,1.89-1.04,2.47
		c-0.16,0.58-0.43,1.43-0.5,1.63c-0.08,0.19-0.5,0.89-0.58,1.12c-0.08,0.24-0.42,1.4-0.54,1.63c-0.11,0.23-0.42,0.89-0.42,1.12
		c0,0.23-0.23,0.74-0.43,1.16c-0.2,0.43-0.43,1.16-0.54,1.43c-0.12,0.27-0.27,0.46-0.31,0.61c-0.04,0.15-0.08,0.58-0.11,0.7
		c-0.04,0.11-0.12,0.31-0.12,0.31c-0.19,0.09-10.57,4.56-12.04,5.26c-1.48,0.7-12.01,5.7-12.66,6.01c-0.65,0.31-1.53,0.98-2.16,0.55
		c-0.83-0.57-1.62-1.76-2.16-2.81c-0.44-0.88-0.92-2.35-1-3.4c-0.09-1.33,0.47-1.58,2.41-2.71c0.96-0.55,8.54-4.56,10.97-5.82
		C14.08,56.25,19.07,53.62,19.07,53.62"/>
	<path d="M178.25,70.95c0.32-1.2-0.85-2.14-2.9-2.14c-2.08,0-3.72,0.94-4.04,2.14c-0.27,0.99,0.48,1.8,1.92,2.05l-0.21,0.8
		c-1.17,0.03-2.34,0.04-3.51,0.04l-0.18,1.52c2.23,0,6.39-0.2,8.96-0.51c0.07-0.46,0.16-0.93,0.22-1.39
		c-1.15,0.12-2.29,0.21-3.39,0.26l0.19-0.72C176.83,72.73,177.99,71.93,178.25,70.95 M183.57,64.8h-2.1L178.21,77h2.1L183.57,64.8z
		 M179.52,68.61l0.36-1.35h-8.24l-0.36,1.35H179.52z M173.94,66.74h4.03l0.36-1.35h-4.03L173.94,66.74z M176.13,70.95
		c-0.13,0.48-0.81,0.82-1.58,0.82c-0.78,0-1.25-0.35-1.12-0.82c0.13-0.49,0.79-0.86,1.57-0.86
		C175.77,70.09,176.27,70.46,176.13,70.95 M164.78,64.8h-2.05L159.46,77h2.05l1.65-6.19h1.94l0.4-1.48h-1.93L164.78,64.8z
		 M160.19,72.62c-1.92-1.07-2.59-2.75-1.91-5.3l0.41-1.52h-2.16l-0.42,1.58c-0.68,2.56-2.16,4.36-4.91,5.61
		c0.31,0.45,0.63,0.91,0.92,1.36c1.4-0.55,3.45-2.12,4.14-3.38c0.1,1.18,1.33,2.52,2.35,3.08
		C159.14,73.58,159.66,73.11,160.19,72.62 M137.65,68.48c0.24-0.89,1.19-1.47,2.17-1.47c0.97,0,1.65,0.58,1.41,1.47
		c-0.24,0.89-1.22,1.48-2.2,1.48S137.41,69.37,137.65,68.48 M142.92,72.55c-1.09,0.09-2.83,0.21-4.74,0.26
		c-1.4,0.04-2.85,0.04-4.47,0.04l-0.19,1.58c1.25,0.01,2.98-0.04,4.53-0.1c1.46-0.06,3.54-0.22,4.63-0.35L142.92,72.55z
		 M147.71,64.8h-2.07L142.38,77h2.07L147.71,64.8z M135.63,68.48c-0.48,1.78,0.86,2.92,3.01,2.92c2.17,0,4.15-1.14,4.62-2.92
		c0.47-1.75-0.89-2.91-3.06-2.91C138.05,65.57,136.1,66.73,135.63,68.48 M128.45,72.14l0.39-1.44h-12.64l-0.39,1.44H128.45z
		 M127.59,69.65l0.38-1.42h-7.36l0.81-3.04h-2.1l-1.19,4.45H127.59z M125.77,76.68l0.38-1.42h-7.53l0.59-2.2h-2.1l-0.97,3.62H125.77
		z M103.04,76.78l0.23-0.88l0.57,1.08c0.79-0.21,2.11-0.88,2.76-1.72c0.16,0.85,1.08,1.5,1.7,1.66l1.43-1.42
		c-1.31-0.33-1.78-1.34-1.44-2.64l0.28-1.03h-2.04l-0.27,1.03c-0.36,1.35-1.49,2.24-2.87,2.62l0.95-3.55h-1.94l-0.34,1.29h-1.2
		l0.33-1.23h-1.95l-1.28,4.79H103.04z M98.92,68.22c-0.45,1.69,0.82,2.86,2.91,2.86c2.08,0,4-1.16,4.46-2.86
		c0.46-1.71-0.85-2.84-2.93-2.84C101.27,65.38,99.38,66.51,98.92,68.22 M109.63,71.31l1.74-6.51h-2.11l-0.7,2.64h-1.57l-0.39,1.45
		h1.57l-0.65,2.42H109.63z M100.92,68.24c0.23-0.86,1.07-1.39,2.04-1.39c0.96,0,1.56,0.53,1.33,1.39c-0.23,0.88-1.11,1.4-2.07,1.4
		C101.26,69.64,100.69,69.1,100.92,68.24 M101.46,75.44h-1.2l0.24-0.91h1.2L101.46,75.44z M88.71,74.47
		c-0.18,0.68-1.24,1.11-2.97,1.11c-1.64,0-2.49-0.42-2.3-1.11s1.26-1.12,2.9-1.12C88.06,73.35,88.89,73.78,88.71,74.47 M91.53,71.67
		l1.84-6.87h-2.11l-0.52,1.93h-2.14l-0.37,1.39h2.14l-0.29,1.07h-2.26l-0.37,1.39h2.26l-0.29,1.09H91.53z M82.12,65.57l-0.4,1.48
		h4.34c-0.68,1.54-3.33,3.1-5.99,3.55l0.42,1.43c4.19-0.93,7.28-3.1,8.29-6.46H82.12z M90.87,74.47c0.41-1.54-1.1-2.56-4.15-2.56
		c-2.98,0-5.03,1.02-5.44,2.56c-0.41,1.54,1.1,2.53,4.08,2.53C88.4,77,90.45,76.01,90.87,74.47 M63.05,72.64l-0.38,1.43h7.53
		l-0.78,2.92h2.08l1.16-4.35h-3.69l0.52-1.93h5.27l0.38-1.43h-1.93c0.63-1.16,1.14-2.68,1.49-4.08H65.3l-0.38,1.43h7.34
		c-0.19,0.78-0.69,2.02-1.03,2.65h-8.71l-0.38,1.43h5.27l-0.52,1.93H63.05z"/>
</g>
</svg>
